#
# Exported by OpenBRF -- marco tarini
#
s cutter_hull.03
newmtl ship_wood_01
Ka 0.8 0.8 0.8
Kd 0.2 0.2 0.2
usemtl ship_wood_01
v 0.018546 9.68366 -3.7329
v -2.15961 9.68379 -3.73291
v -2.20922 9.76115 -2.36442
v -3.41189 10.5709 -3.85223
v -2.20124 10.5679 -3.85002
v -3.4328 9.76122 -2.40178
v 0.018546 11.1115 -10.1664
v -2.64969 11.1195 -10.1722
v 0.018546 10.5629 -3.84642
v 0.018546 11.1535 -10.6696
v -2.40022 11.1696 -10.5151
v 0.018546 10.4837 -3.83623
v -2.19724 10.4835 -3.8388
v -3.78971 9.71041 2.12575
v 0.018546 9.7114 2.12575
v -0.689856 10.2072 11.1551
v 0.018546 10.0493 7.06744
v -1.61694 10.193 10.7361
v 0.018546 10.2092 11.2172
v -2.88687 10.1255 9.02142
v -2.3143 10.1616 9.97834
v -3.28403 10.0493 7.06749
v 0.018546 9.79076 7.06744
v -3.28403 9.79076 7.06749
v 2.24631 9.76115 -2.36442
v 2.1967 9.68379 -3.73291
v 3.44898 10.5709 -3.85223
v 2.23833 10.5679 -3.85002
v 3.46989 9.76122 -2.40178
v 2.68678 11.1195 -10.1722
v 2.43731 11.1696 -10.5151
v 2.23433 10.4835 -3.8388
v 3.8268 9.71041 2.12575
v 0.726948 10.2072 11.1551
v 1.65404 10.193 10.7361
v 2.92396 10.1255 9.02142
v 2.35139 10.1616 9.97834
v 3.32112 10.0493 7.06749
v 3.32112 9.79076 7.06749
vn 4.969e-10 0.999946 -0.0104255
vt 0.988834 1.59138
vn 5.94027e-05 0.998406 -0.0564324
vt 0.431996 1.59139
vn 0.0137132 0.999426 0.030976
vt 0.419415 1.28557
vn 0.00115489 0.98713 0.159916
vt 0.127323 1.60646
vn 0.00212648 0.992411 0.122949
vt 0.421444 1.60606
vn -0.00421898 0.990122 0.140148
vt 0.131818 1.28558
vn -7.43188e-10 0.996256 0.0864484
vt 0.988834 2.86299
vn 0.00308168 0.996095 0.0882288
vt 0.307789 2.86407
vn -8.55765e-11 0.996254 0.0864765
vt 0.988834 1.60538
vn -1.52821e-10 0.996222 0.0868388
vt 0.988834 2.96312
vn 0.0165574 0.987562 0.156355
vt 0.37103 2.93212
vn -0.000906889 0.130532 0.991444
vt -0.679615 1.03437
vn 9.37599e-10 0.128811 0.991669
vt -0.383674 0.289288
vn -0.00115747 0.131203 0.991355
vt -0.384068 1.04714
vn 1.59007e-09 0.128102 0.991761
vt -0.679662 0.289288
vn 0.998125 0.051372 0.0332787
vt -1.01918 0.456928
vn 0.998125 0.0513688 0.0332772
vt -1.37288 0.456927
vn 0.99812 0.051439 0.0333115
vt -1.38822 0.637176
vn -0.000261286 0.999937 0.0112076
vt -0.01351 0.276268
vn -1.57121e-10 0.999973 0.0073734
vt 0.988828 0.276269
vn -4.87225e-11 0.127637 0.991821
vt 0.990378 2.47169
vn -0.00130851 0.131682 0.991291
vt 0.424901 2.45033
vn -9.54011e-11 0.127527 0.991835
vt 0.990378 2.45061
vn -0.00131173 0.131771 0.991279
vt 0.423889 2.47307
vn 0.9981 0.0517427 0.0334601
vt -1.38985 0.656325
vn 0.0013314 0.999263 -0.0383692
vt 0.804478 -2.12997
vn -1.59103e-10 0.977087 -0.212842
vt 0.98882 -1.36587
vn 0.000510256 0.999242 -0.0389154
vt 0.569469 -2.04612
vn -6.97332e-11 0.999258 -0.0385108
vt 0.988833 -2.14239
vn 0.000276818 0.999256 -0.0385609
vt 0.247558 -1.70302
vn -0.000704996 0.999234 -0.0391185
vt 0.392696 -1.89449
vn -3.00162e-06 0.982305 -0.187291
vt 0.146887 -1.36701
vn -0.000170406 0.99987 -0.0161273
vt 0.01873 -0.318528
vn -7.70732e-13 0.997872 -0.065201
vt 0.98882 -1.31081
vn -2.02446e-12 0.999871 -0.0160584
vt 0.988831 -0.318528
vn -1.04573e-06 0.997869 -0.0652498
vt 0.146887 -1.31205
vn -0.0137132 0.999426 0.0309761
vt 0.419415 1.28557
vn -5.94028e-05 0.998406 -0.0564324
vt 0.431996 1.59139
vn -0.00115489 0.98713 0.159916
vt 0.127323 1.60646
vn -0.00212648 0.992411 0.122949
vt 0.421444 1.60606
vn 0.00421898 0.990122 0.140148
vt 0.131818 1.28558
vn -0.00308168 0.996095 0.0882288
vt 0.307789 2.86407
vn -0.0165574 0.987562 0.156355
vt 0.37103 2.93212
vn 0.000906888 0.130532 0.991444
vt -0.679615 1.03437
vn 0.00115747 0.131203 0.991355
vt -0.384068 1.04714
vn -0.998125 0.0513733 0.0332794
vt -1.01918 0.456928
vn -0.99812 0.05144 0.033312
vt -1.38822 0.637176
vn -0.998125 0.0513701 0.0332778
vt -1.37288 0.456927
vn 0.000261286 0.999937 0.0112076
vt -0.01351 0.276268
vn 0.00130851 0.131682 0.991291
vt 0.424901 2.45033
vn 0.00131173 0.131771 0.991279
vt 0.423889 2.47307
vn -0.9981 0.0517427 0.0334601
vt -1.38985 0.656325
vn -0.0013314 0.999263 -0.0383692
vt 0.804478 -2.12997
vn -0.000510258 0.999242 -0.0389154
vt 0.569469 -2.04612
vn -0.000276818 0.999256 -0.0385609
vt 0.247558 -1.70302
vn 0.000704997 0.999234 -0.0391185
vt 0.392696 -1.89449
vn 3.00162e-06 0.982305 -0.18729
vt 0.146887 -1.36701
vn 0.000170406 0.99987 -0.0161273
vt 0.01873 -0.318528
vn 1.04573e-06 0.997869 -0.0652499
vt 0.146887 -1.31205
f 1/1/1 2/2/2 3/3/3
f 4/4/4 3/3/3 5/5/5
f 3/3/3 4/4/4 6/6/6
f 4/4/4 7/7/7 8/8/8
f 7/7/7 5/5/5 9/9/9
f 4/4/4 5/5/5 7/7/7
f 8/8/8 10/10/10 11/11/11
f 10/10/10 8/8/8 7/7/7
f 2/12/12 12/13/13 13/14/14
f 12/13/13 2/12/12 1/15/15
f 3/16/16 2/17/17 13/18/18
f 3/3/3 6/6/6 14/19/19
f 3/3/3 15/20/20 1/1/1
f 15/20/20 3/3/3 14/19/19
f 9/21/21 13/22/22 12/23/23
f 13/22/22 9/21/21 5/24/24
f 13/18/18 5/25/25 3/16/16
f 16/26/26 17/27/27 18/28/28
f 19/29/29 17/27/27 16/26/26
f 20/30/30 21/31/31 17/27/27
f 22/32/32 20/30/30 17/27/27
f 14/33/33 23/34/34 15/35/35
f 23/34/34 14/33/33 24/36/36
f 23/34/34 22/32/32 17/27/27
f 22/32/32 23/34/34 24/36/36
f 21/31/31 18/28/28 17/27/27
f 1/1/1 25/37/37 26/38/38
f 27/39/39 28/40/40 25/37/37
f 25/37/37 29/41/41 27/39/39
f 27/39/39 30/42/42 7/7/7
f 7/7/7 9/9/9 28/40/40
f 27/39/39 7/7/7 28/40/40
f 30/42/42 31/43/43 10/10/10
f 10/10/10 7/7/7 30/42/42
f 26/44/44 32/45/45 12/13/13
f 12/13/13 1/15/15 26/44/44
f 25/46/46 32/47/47 26/48/48
f 25/37/37 33/49/49 29/41/41
f 25/37/37 1/1/1 15/20/20
f 15/20/20 33/49/49 25/37/37
f 9/21/21 12/23/23 32/50/50
f 32/50/50 28/51/51 9/21/21
f 32/47/47 25/46/46 28/52/52
f 34/53/53 35/54/54 17/27/27
f 19/29/29 34/53/53 17/27/27
f 36/55/55 17/27/27 37/56/56
f 38/57/57 17/27/27 36/55/55
f 33/58/58 15/35/35 23/34/34
f 23/34/34 39/59/59 33/58/58
f 23/34/34 17/27/27 38/57/57
f 38/57/57 39/59/59 23/34/34
f 37/56/56 17/27/27 35/54/54
