#
# Exported by OpenBRF -- marco tarini
#
s cutter_sails_2a.03
newmtl schooner_details
Ka 0.8 0.8 0.8
Kd 0.2 0.2 0.2
usemtl schooner_details
v -2.89711 34.455 -3.53109
v -3.8568 34.4551 -3.53108
v -3.79628 34.4551 -3.53103
v -2.84951 34.4551 -3.53103
v -1.94469 34.4551 -3.53104
v -1.96989 34.4551 -3.53101
v -1.47611 34.4551 -3.53102
v -1.46435 34.455 -3.53119
v -0.00151 34.455 -3.53105
v -0.00151 34.4551 -3.53101
v 0.490003 34.4551 -3.53099
v 0.486104 34.455 -3.53113
v 2.40089 34.4551 -3.53102
v 2.40735 34.455 -3.53106
v 1.93807 34.4551 -3.53105
v 1.96326 34.4551 -3.53101
v -2.45844 34.455 -3.53089
v -1.96989 34.455 -3.5309
v -1.99509 34.4551 -3.53084
v -2.49958 34.455 -3.53087
v -0.496981 34.455 -3.53075
v -0.493024 34.455 -3.53088
v -0.00151 34.455 -3.5309
v -0.00151 34.4551 -3.5308
v 1.48479 34.455 -3.53075
v 1.47309 34.455 -3.53084
v 1.96326 34.455 -3.53094
v 1.9884 34.4551 -3.53089
v 2.9826 34.455 -3.53086
v 2.935 34.455 -3.53094
v 3.90813 34.455 -3.53089
v 3.96866 34.4551 -3.53089
v -2.50604 34.4551 -3.531
v -0.493024 34.4551 -3.53102
v 1.47309 34.4551 -3.53099
v 3.03021 34.4551 -3.53099
v 4.02918 34.4551 -3.53099
v -2.41729 34.455 -3.53105
v -0.489125 34.455 -3.53118
v 1.46133 34.455 -3.53112
v 2.8874 34.455 -3.53107
v 3.84761 34.4551 -3.53101
v -2.41083 34.4551 -3.53102
v -3.91732 34.455 -3.53097
v -2.94471 34.4549 -3.53088
v -2.99232 34.455 -3.53089
v -3.97785 34.4551 -3.53089
v -3.03992 34.4551 -3.53099
v -4.03831 34.4551 -3.53099
v -0.976739 34.455 -3.5313
v -0.984595 34.4551 -3.53102
v -1.47611 34.455 -3.53087
v -0.984595 34.455 -3.53086
v -0.992394 34.455 -3.5307
v -1.48786 34.455 -3.53075
v 0.973718 34.455 -3.53121
v 0.981516 34.4551 -3.53096
v 0.490003 34.455 -3.53083
v 0.981516 34.4549 -3.53077
v 0.989373 34.455 -3.53065
v 0.493902 34.455 -3.53073
v 2.83979 34.4551 -3.53103
v 3.78709 34.4551 -3.53103
v 2.48958 34.455 -3.53089
v 2.44849 34.455 -3.53095
v 2.49609 34.4551 -3.531
v 2.935 34.4551 -3.53097
v 2.935 34.455 -3.53096
v 2.935 34.4551 -3.53099
v -2.94471 34.455 -3.53099
v -2.94471 34.4551 -3.53101
v -2.94471 34.455 -3.53091
vn 1.66847e-08 0.533447 -0.845833
vt 0.869513 0.044293
vn 3.97587e-05 0.80238 -0.596813
vt 0.786505 0.044293
vn 3.97565e-05 0.802367 -0.596831
vt 0.786505 0.018415
vn 5.14833e-05 0.512388 -0.858754
vt 0.869513 0.018415
vn 1.20286e-05 0.60935 -0.792901
vt 0.789593 0.042478
vn 1.20418e-05 0.609142 -0.793061
vt 0.789593 0.016599
vn -1.5164e-05 0.928295 -0.371844
vt 0.831097 0.016599
vn 7.08458e-06 0.928839 -0.370482
vt 0.831097 0.042478
vn 5.90353e-05 0.617998 -0.78618
vt 0.788 0.042478
vn 5.90656e-05 0.617822 -0.786318
vt 0.788 0.016599
vn 4.78488e-05 0.934645 -0.355583
vt 0.829504 0.016599
vn -1.84845e-05 0.935257 -0.353968
vt 0.829504 0.042478
vn -4.14261e-06 0.554381 -0.832263
vt 0.826807 0.018482
vn -9.64964e-05 -0.650884 -0.759177
vt 0.826807 0.044361
vn -2.22743e-05 0.702002 -0.712175
vt 0.785303 0.044361
vn -2.39961e-05 0.714988 -0.699137
vt 0.785303 0.018482
vn 4.40476e-05 -1 0.000128913
vt 0.911017 0.070661
vn 7.57962e-05 -0.987825 -0.155568
vt 0.952521 0.070661
vn 0.00010921 -0.851631 0.524141
vt 0.952521 0.096051
vn -0.000100707 0.714205 0.699936
vt 0.911017 0.096051
vn 9.88678e-05 -0.950723 0.310041
vt 0.914105 0.094236
vn 5.66719e-05 -0.999601 0.028242
vt 0.914105 0.068845
vn 9.59144e-05 -0.992438 0.122744
vt 0.955609 0.068845
vn 0.00012347 -0.9011 0.433612
vt 0.955609 0.094236
vn 0.000223233 -0.835288 0.549812
vt 0.912512 0.094236
vn 0.000120512 -0.999982 0.00606548
vt 0.912512 0.068845
vn 0.000189026 -0.889926 0.456105
vt 0.954016 0.068845
vn 0.000189147 -0.889046 0.457817
vt 0.954016 0.094236
vn 1.81238e-05 -0.82912 0.559071
vt 0.868311 0.096119
vn 2.55746e-05 -0.981946 -0.18916
vt 0.868311 0.070728
vn 3.25573e-05 -0.0593363 0.998238
vt 0.951319 0.070728
vn 0.000123989 -0.973121 -0.230295
vt 0.951319 0.096119
vn 3.36549e-06 0.862437 0.506165
vt 0.911017 0.122418
vn 1.97731e-06 0.990786 0.135437
vt 0.952521 0.096051
vn 1.98704e-06 0.99079 0.135406
vt 0.952521 0.122418
vn -6.09771e-05 0.980756 0.195238
vt 0.914105 0.120603
vn -2.36918e-05 0.980646 0.195788
vt 0.914105 0.094236
vn -2.40598e-05 0.994058 0.108854
vt 0.955609 0.094236
vn -2.40424e-05 0.994062 0.108814
vt 0.955609 0.120603
vn -1.37976e-05 0.9811 0.193501
vt 0.912512 0.120603
vn -2.26528e-05 0.981017 0.193923
vt 0.912512 0.094236
vn -3.1848e-05 0.970597 0.240711
vt 0.954016 0.094236
vn -3.35674e-05 0.968376 0.249495
vt 0.954016 0.120603
vn -1.72747e-05 0.891965 0.452104
vt 0.868311 0.122486
vn -3.03952e-06 0.889794 0.456363
vt 0.868311 0.096119
vn 0 0.953081 0.302716
vt 0.951319 0.122486
vn 0.000101925 -0.812278 -0.583271
vt 0.911017 0.044293
vn 7.59726e-05 -0.985302 -0.170822
vt 0.952521 0.044293
vn 7.25093e-05 -0.994894 -0.100928
vt 0.914105 0.042478
vn 7.12882e-05 -0.995246 -0.0973941
vt 0.955609 0.042478
vn 5.19368e-05 -0.979611 -0.200903
vt 0.912512 0.042478
vn 0.000106034 -0.974408 -0.224785
vt 0.954016 0.042478
vn -1.49557e-05 -0.320749 -0.947164
vt 0.868311 0.044361
vn 6.11832e-05 -0.958018 -0.286707
vt 0.951319 0.044361
vn 5.15542e-05 0.512366 -0.858767
vt 0.911017 0.044293
vn 1.25834e-06 0.319087 -0.947726
vt 0.911017 0.018415
vn -0.00147204 -0.605006 -0.79622
vt 0.786505 0.070661
vn -4.1707e-05 0.215969 0.9764
vt 0.869513 0.070661
vn -7.00343e-05 0.539651 0.841889
vt 0.869513 0.096051
vn -7.72172e-06 -0.947433 -0.319955
vt 0.786505 0.096051
vn 2.85966e-09 0.946019 0.324111
vt 0.786505 0.096051
vn 4.40802e-05 0.74385 0.668346
vt 0.869513 0.122418
vn 0 0.945946 0.324324
vt 0.786505 0.122418
vn -2.4196e-05 -0.913137 -0.407652
vt 0.786505 0.044293
vn 6.10567e-05 -0.963904 -0.26625
vt 0.869513 0.044293
vn -5.55436e-05 -0.956836 -0.290628
vt 0.869513 0.070661
vn -2.3845e-05 -0.914231 -0.405192
vt 0.786505 0.070661
vn 4.94571e-05 0.927961 -0.372678
vt 0.914105 0.042478
vn 3.6159e-05 0.977731 -0.209863
vt 0.872601 0.042478
vn -5.49149e-05 0.977204 -0.212303
vt 0.872601 0.016599
vn -2.05739e-05 0.92735 -0.374195
vt 0.914105 0.016599
vn -0.000124518 -0.99997 0.00776909
vt 0.831097 0.068845
vn 5.97755e-06 -0.999714 -0.0239055
vt 0.872601 0.068845
vn -2.97044e-05 -0.973053 0.230583
vt 0.872601 0.094236
vn -0.000151205 -0.952998 0.302977
vt 0.831097 0.094236
vn 7.18349e-05 0.971849 0.235606
vt 0.831097 0.094236
vn 6.39605e-06 0.972693 0.232095
vt 0.872601 0.094236
vn -4.20777e-05 0.972961 0.230972
vt 0.872601 0.120603
vn 8.05123e-06 0.97248 0.232986
vt 0.831097 0.120603
vn -2.05181e-05 -0.99274 -0.120278
vt 0.831097 0.042478
vn 5.47663e-05 -0.992926 -0.118733
vt 0.872601 0.042478
vn 1.7435e-05 0.983315 -0.181909
vt 0.912512 0.042478
vn -1.40165e-05 0.983492 -0.180953
vt 0.871008 0.042478
vn 1.71065e-05 0.983314 -0.181918
vt 0.871008 0.016599
vn -1.37456e-05 0.94074 -0.33913
vt 0.912512 0.016599
vn -3.76953e-05 0.941395 -0.337307
vt 0.912512 0.042478
vn -9.06443e-05 -0.999514 0.0311715
vt 0.829504 0.068845
vn -7.93859e-06 -0.999793 -0.0203649
vt 0.871008 0.068845
vn 0.000111775 -0.886303 0.463107
vt 0.871008 0.094236
vn -0.000141466 -0.829575 0.558395
vt 0.829504 0.094236
vn 2.25279e-05 0.987289 0.158937
vt 0.829504 0.094236
vn -7.48964e-06 0.983644 0.180123
vt 0.871008 0.094236
vn 3.11969e-05 0.983816 0.179181
vt 0.871008 0.120603
vn 5.20279e-05 0.98736 0.158495
vt 0.829504 0.120603
vn -2.30298e-05 -0.987119 -0.159985
vt 0.871008 0.042478
vn -9.59159e-05 -0.982294 -0.187346
vt 0.829504 0.042478
vn -1.1507e-06 -0.981015 -0.193931
vt 0.871008 0.042478
vn -9.82101e-06 0.522073 -0.852901
vt 0.868311 0.018482
vn 6.75827e-05 -0.437796 -0.899074
vt 0.951319 0.018482
vn -4.00395e-05 -0.746883 0.664955
vt 0.826807 0.096119
vn -2.35673e-05 -0.99889 0.0470978
vt 0.826807 0.070728
vn 5.2726e-06 0.901167 0.433472
vt 0.826807 0.122486
vn 4.33705e-05 0.900286 0.4353
vt 0.826807 0.096119
vn 6.22822e-05 -0.538804 -0.842431
vt 0.868311 0.096119
vn 7.47153e-05 -0.161593 -0.986858
vt 0.951319 0.096119
vn 7.48243e-05 -0.131905 -0.991262
vt 0.951319 0.070728
vn 6.10754e-05 -0.407651 -0.913138
vt 0.868311 0.070728
vn 6.22465e-05 -0.634821 -0.772659
vt 0.868311 0.122486
vn 1.0764e-05 -0.955017 -0.29655
vt 0.951319 0.122486
vn 3.62127e-05 0.407888 0.913032
vt 0.868311 0.070728
vn -1.77504e-05 0.964142 0.265386
vt 0.951319 0.070728
vn -1.77461e-05 0.964126 0.265446
vt 0.951319 0.044361
vn 3.01305e-05 0.531516 0.847048
vt 0.868311 0.044361
vn 3.2224e-05 0.55531 0.831643
vt 0.951319 0.018482
vn 2.40922e-05 0.634739 0.772726
vt 0.868311 0.018482
vn -3.96868e-07 0.70844 0.705771
vt 0.869513 0.044293
vn -2.85199e-05 0.242536 0.970142
vt 0.869513 0.018415
vn -0.000109777 -0.753307 0.65767
vt 0.786505 0.018415
vn 5.28061e-07 0.904971 -0.425474
vt 0.869513 0.096051
vn -6.41673e-05 -0.683058 -0.730364
vt 0.869513 0.096051
vn -1.23253e-05 -0.948683 -0.316228
vt 0.869513 0.070661
vn -7.70194e-06 -0.947364 -0.32016
vt 0.786505 0.122418
vn -0.000100967 -0.242613 -0.970123
vt 0.869513 0.122418
vn 5.67565e-06 0.917001 0.398885
vt 0.786505 0.044293
vn 2.39695e-05 0.94868 0.316238
vt 0.869513 0.070661
vn -6.59919e-05 0.728639 -0.684897
vt 0.954016 0.042478
vn -6.60039e-05 0.72857 -0.684971
vt 0.954016 0.016599
vn -1.43385e-05 0.983494 -0.180943
vt 0.829504 0.042478
vn -8.96026e-05 -0.992445 0.122692
vt 0.788 0.068845
vn -0.00013324 -0.9011 0.433612
vt 0.788 0.094236
vn 3.37274e-05 0.99406 0.108835
vt 0.788 0.094236
vn 3.37192e-05 0.994062 0.108814
vt 0.788 0.120603
vn -5.43115e-05 -0.995246 -0.0973941
vt 0.788 0.042478
vn -5.43115e-05 -0.995246 -0.0973941
vt 0.829504 0.042478
vn 7.15965e-05 -0.971739 0.236056
vt 0.872601 0.094236
vn -7.86782e-06 0.618048 -0.786141
vt 0.955609 0.042478
vn -7.90083e-06 0.617822 -0.786318
vt 0.955609 0.016599
vn -0.000189933 -0.903874 0.427799
vt 0.789593 0.068845
vn -0.000190029 -0.903058 0.429518
vt 0.789593 0.094236
vn 4.43591e-05 0.988212 0.153094
vt 0.789593 0.094236
vn 4.02842e-05 0.990003 0.141048
vt 0.789593 0.120603
vn -0.000124367 -0.981261 -0.192685
vt 0.789593 0.042478
vn 2.68344e-05 0.615985 -0.787758
vt 0.952521 0.018415
vn 2.68344e-05 0.615985 -0.787758
vt 0.952521 0.044293
vn -5.83526e-05 -0.834465 0.551061
vt 0.785303 0.096119
vn -4.60416e-05 -0.981496 -0.191484
vt 0.785303 0.070728
vn -3.59482e-06 0.969852 0.243695
vt 0.785303 0.096119
vn -3.5982e-06 0.969855 0.243681
vt 0.785303 0.122486
vn -4.6027e-05 -0.981444 -0.191747
vt 0.785303 0.044361
vn -4.6027e-05 -0.981444 -0.191747
vt 0.826807 0.044361
f 1/1/1 2/2/2 3/3/3
f 3/3/3 4/4/4 1/1/1
f 5/5/5 6/6/6 7/7/7
f 7/7/7 8/8/8 5/5/5
f 9/9/9 10/10/10 11/11/11
f 11/11/11 12/12/12 9/9/9
f 13/13/13 14/14/14 15/15/15
f 15/15/15 16/16/16 13/13/13
f 17/17/17 18/18/18 19/19/19
f 19/19/19 20/20/20 17/17/17
f 21/21/21 22/22/22 23/23/23
f 23/23/23 24/24/24 21/21/21
f 25/25/25 26/26/26 27/27/27
f 27/27/27 28/28/28 25/25/25
f 29/29/29 30/30/30 31/31/31
f 31/31/31 32/32/32 29/29/29
f 33/33/33 20/20/20 19/34/34
f 19/34/34 6/35/35 33/33/33
f 34/36/36 21/37/37 24/38/38
f 24/38/38 10/39/39 34/36/36
f 35/40/40 25/41/41 28/42/42
f 28/42/42 16/43/43 35/40/40
f 36/44/44 29/45/45 32/32/32
f 32/32/32 37/46/46 36/44/44
f 38/47/47 5/48/48 18/18/18
f 18/18/18 17/17/17 38/47/47
f 39/49/49 9/50/50 23/23/23
f 23/23/23 22/22/22 39/49/49
f 40/51/51 15/52/52 27/27/27
f 27/27/27 26/26/26 40/51/51
f 30/30/30 41/53/53 42/54/54
f 42/54/54 31/31/31 30/30/30
f 38/55/55 1/1/1 4/4/4
f 4/4/4 43/56/56 38/47/47
f 44/57/57 45/58/58 46/59/59
f 46/59/59 47/60/60 44/57/57
f 47/61/61 46/59/59 48/62/62
f 48/62/62 49/63/63 47/61/61
f 2/64/64 1/65/65 45/66/66
f 45/66/66 44/67/67 2/64/64
f 39/68/68 50/69/69 51/70/70
f 51/70/70 34/71/71 39/68/68
f 52/72/72 53/73/73 54/74/74
f 54/74/74 55/75/75 52/72/72
f 55/76/76 54/77/77 51/78/78
f 51/78/78 7/79/79 55/76/76
f 8/80/80 50/81/81 53/73/73
f 53/73/73 52/72/72 8/80/80
f 40/82/82 56/83/83 57/84/84
f 57/84/84 35/85/85 40/86/86
f 58/87/87 59/88/88 60/89/89
f 60/89/89 61/90/90 58/87/87
f 61/91/91 60/92/92 57/93/93
f 57/93/93 11/94/94 61/91/91
f 56/95/95 59/88/88 58/87/87
f 58/87/87 12/96/96 56/97/97
f 41/53/53 62/98/98 63/99/99
f 63/99/99 42/54/54 41/53/53
f 30/30/30 29/29/29 64/100/100
f 64/100/100 65/101/101 30/30/30
f 29/45/45 36/44/44 66/102/102
f 66/102/102 64/103/103 29/45/45
f 41/53/53 30/30/30 65/101/101
f 65/101/101 14/14/14 41/53/53
f 67/104/104 32/105/105 31/106/106
f 31/31/31 68/107/107 67/104/104
f 69/108/108 37/109/109 32/32/32
f 32/105/105 67/104/104 69/108/108
f 68/110/110 31/111/111 42/112/112
f 42/112/112 67/113/113 68/110/110
f 67/113/113 42/112/112 63/114/114
f 63/114/114 69/115/115 67/113/113
f 70/116/116 71/117/117 3/118/118
f 3/118/118 2/64/64 70/116/116
f 44/57/57 47/61/61 70/119/119
f 70/120/120 72/121/121 44/67/67
f 47/60/60 49/122/122 71/123/123
f 71/123/123 70/120/120 47/60/60
f 2/124/124 44/57/57 72/125/125
f 72/125/125 70/116/116 2/124/124
f 26/26/26 25/25/25 60/89/89
f 60/89/89 59/88/88 26/26/26
f 25/41/41 35/40/40 57/93/93
f 57/93/93 60/92/92 25/41/41
f 56/97/97 40/51/51 26/26/26
f 26/26/26 59/88/88 56/95/95
f 15/126/126 40/86/86 35/85/85
f 35/85/85 16/127/127 15/126/126
f 12/12/12 11/11/11 57/84/84
f 57/84/84 56/83/83 12/128/128
f 23/129/129 58/87/87 61/90/90
f 61/90/90 24/130/130 23/129/129
f 24/131/131 61/91/91 11/94/94
f 11/94/94 10/132/132 24/131/131
f 12/96/96 58/87/87 23/129/129
f 23/129/129 9/133/133 12/134/134
f 22/22/22 21/21/21 54/135/135
f 54/135/135 53/73/73 22/22/22
f 21/37/37 34/36/36 51/78/78
f 51/78/78 54/77/77 21/37/37
f 50/81/81 39/49/49 22/22/22
f 22/22/22 53/73/73 50/81/81
f 9/136/136 39/68/68 34/71/71
f 34/71/71 10/137/137 9/136/136
f 8/8/8 7/7/7 51/70/70
f 51/70/70 50/69/69 8/8/8
f 18/138/138 52/72/72 55/75/75
f 55/75/75 19/139/139 18/138/138
f 19/140/140 55/76/76 7/79/79
f 7/79/79 6/141/141 19/140/140
f 5/142/142 8/80/80 52/72/72
f 52/72/72 18/138/138 5/142/142
f 45/58/58 17/17/17 20/20/20
f 20/20/20 46/59/59 45/58/58
f 20/20/20 33/33/33 48/62/62
f 48/62/62 46/59/59 20/20/20
f 1/65/65 38/47/47 17/17/17
f 17/17/17 45/66/66 1/65/65
f 5/48/48 38/47/47 43/56/56
f 43/56/56 6/143/143 5/144/144
f 14/14/14 13/13/13 62/98/98
f 62/98/98 41/53/53 14/14/14
f 65/101/101 64/100/100 28/145/145
f 28/145/145 27/146/146 65/101/101
f 28/147/147 64/103/103 66/102/102
f 66/102/102 16/148/148 28/147/147
f 14/14/14 65/101/101 27/146/146
f 27/146/146 15/149/149 14/150/150
