#
# Exported by OpenBRF -- marco tarini
#
s cutter_sails_1.04
newmtl schooner_details
Ka 0.8 0.8 0.8
Kd 0.2 0.2 0.2
usemtl schooner_details
v -0.759665 9.75915 -0.807596
v -0.731399 9.76155 -0.846237
v -0.742276 9.88334 -0.94909
v -0.771562 9.91107 -0.92021
v -0.801264 9.75201 -0.82688
v -0.811558 9.88913 -0.93971
v -0.772959 9.75438 -0.865482
v -0.782277 9.8614 -0.968647
v -0.78556 9.61437 -0.91965
v -0.77053 9.64736 -0.927211
v -0.840969 9.63606 -0.919678
v -0.825876 9.66907 -0.92721
v -0.813852 9.71391 -1.061
v -0.770843 9.72885 -1.02974
v -0.845914 9.71501 -1.03437
v -0.802915 9.72995 -1.00315
v -0.776017 9.89124 -0.981089
v -0.742628 9.87764 -0.946153
v -0.81118 9.89478 -0.942643
v -0.777817 9.88124 -0.907711
v -2.39434 11.1985 3.78399
v -2.35848 11.1677 3.79907
v -2.41969 11.1909 3.82713
v -2.3838 11.16 3.84222
vn 0.22495 0.024855 0.974053
vt 0.971 0.1232
vn 0.81352 -0.00922351 0.581464
vt 0.9623 0.1232
vn 0.773862 0.576402 0.262484
vt 0.9623 0.0759
vn 0.175743 0.615242 0.768499
vt 0.971 0.0759
vn -0.612174 0.222979 0.758632
vt 0.9797 0.1232
vn -0.957085 0.114329 0.266304
vt 0.9797 0.0759
vn -0.251577 -0.0623217 -0.965829
vt 0.9884 0.1232
vn -0.687698 -0.491376 -0.534435
vt 0.9797 0.1232
vn -0.162112 -0.66769 -0.726574
vt 0.9884 0.0759
vn 0.473289 -0.249287 -0.844899
vt 0.9971 0.1232
vn 0.585122 -0.492096 -0.644573
vt 0.9971 0.0759
vn 0.041798 -0.953992 0.296903
vt 0.971 0.1614
vn 0.846388 -0.471482 -0.247653
vt 0.9623 0.1614
vn -0.619608 -0.735394 0.274376
vt 0.9797 0.1614
vn -0.409174 0.901758 -0.139316
vt 0.9884 0.1614
vn 0.370208 0.910415 -0.184634
vt 0.9971 0.1614
vn -0.0874049 -0.139722 -0.986326
vt 0.971 0.2012
vn 0.629072 -0.11 -0.769524
vt 0.9623 0.2012
vn -0.394071 -0.783698 -0.480131
vt 0.9797 0.2012
vn -0.393477 0.155126 0.906152
vt 0.9884 0.2012
vn -0.867539 0.497238 -0.0114147
vt 0.9797 0.2012
vn 0.596571 -0.0763953 0.798916
vt 0.9971 0.2012
vn 0.338099 0.921819 -0.189574
vt 0.971 0.2496
vn 0.466598 0.878523 -0.102387
vt 0.9623 0.2496
vn -0.94298 0.120167 -0.3104
vt 0.9797 0.2496
vn -0.171991 -0.960084 0.220585
vt 0.9884 0.2496
vn 0.370025 -0.828821 0.419687
vt 0.9971 0.2496
vn 0.562141 -0.487318 0.668221
vt 0.9884 0.2012
vn -0.0164349 0.963342 -0.267774
vt 0.971 5.5354
vn 0.648464 0.761119 0.0138927
vt 0.9623 5.5354
vn -0.735001 -0.674955 -0.0648715
vt 0.9797 5.5354
vn -0.560258 -0.827542 0.0358643
vt 0.9884 5.5354
vn 0.804253 -0.446544 0.392142
vt 0.9971 5.5354
vn -0.0376548 0.701799 -0.711379
vt 0.9623 0.0759
vn -0.0377289 0.701456 -0.711713
vt 0.9623 0.0759
vn -0.037581 0.702142 -0.711045
vt 0.9623 0.0759
f 1/1/1 2/2/2 3/3/3
f 3/3/3 4/4/4 1/1/1
f 5/5/5 1/1/1 4/4/4
f 4/4/4 6/6/6 5/5/5
f 7/7/7 5/8/8 6/6/6
f 6/6/6 8/9/9 7/7/7
f 2/10/10 7/7/7 8/9/9
f 8/9/9 3/11/11 2/10/10
f 9/12/12 10/13/13 2/2/2
f 2/2/2 1/1/1 9/12/12
f 11/14/14 9/12/12 1/1/1
f 1/1/1 5/5/5 11/14/14
f 12/15/15 11/14/14 5/5/5
f 5/5/5 7/7/7 12/15/15
f 10/16/16 12/15/15 7/7/7
f 7/7/7 2/10/10 10/16/16
f 13/17/17 14/18/18 10/13/13
f 10/13/13 9/12/12 13/17/17
f 15/19/19 13/17/17 9/12/12
f 9/12/12 11/14/14 15/19/19
f 16/20/20 15/21/21 11/14/14
f 11/14/14 12/15/15 16/20/20
f 14/22/22 16/20/20 12/15/15
f 12/15/15 10/16/16 14/22/22
f 17/23/23 18/24/24 14/18/18
f 14/18/18 13/17/17 17/23/23
f 19/25/25 17/23/23 13/17/17
f 13/17/17 15/21/21 19/25/25
f 20/26/26 19/25/25 15/21/21
f 15/21/21 16/20/20 20/26/26
f 18/27/27 20/26/26 16/28/28
f 16/28/28 14/22/22 18/27/27
f 21/29/29 22/30/30 18/24/24
f 18/24/24 17/23/23 21/29/29
f 23/31/31 21/29/29 17/23/23
f 17/23/23 19/25/25 23/31/31
f 24/32/32 23/31/31 19/25/25
f 19/25/25 20/26/26 24/32/32
f 22/33/33 24/32/32 20/26/26
f 20/26/26 18/27/27 22/33/33
f 6/34/34 4/35/35 3/3/3
f 3/3/3 8/36/36 6/34/34
